<svg width="24" height="24" viewBox="0 0 24 24" fill="none" xmlns="http://www.w3.org/2000/svg">
<path fill-rule="evenodd" clip-rule="evenodd" d="M12 22C17.5228 22 22 17.5228 22 12C22 6.47715 17.5228 2 12 2C6.47715 2 2 6.47715 2 12C2 17.5228 6.47715 22 12 22ZM12.4484 6.40874C12.2649 6.03711 11.735 6.03711 11.5516 6.40874L10.082 9.38653L6.79579 9.86405C6.38568 9.92364 6.22193 10.4276 6.51869 10.7169L8.8966 13.0348L8.33525 16.3077C8.2652 16.7162 8.69391 17.0276 9.06073 16.8348L12 15.2895L14.9393 16.8348C15.3061 17.0276 15.7348 16.7162 15.6647 16.3077L15.1034 13.0348L17.4813 10.7169C17.778 10.4276 17.6143 9.92364 17.2042 9.86405L13.918 9.38653L12.4484 6.40874Z" fill="white"/>
</svg>
